<?xml version="1.0" encoding="UTF-8"?> <svg xmlns="http://www.w3.org/2000/svg" width="321" height="59" viewBox="0 0 321 59" fill="none"> <path d="M2.976 13.4H14.112V30.872L25.68 13.4H36.336V47H25.2V29.576L13.68 47H2.976V13.4ZM75.4241 13.4V47H64.0961V34.616H53.6321V47H42.3041V13.4H53.6321V25.304H64.0961V13.4H75.4241ZM114.278 34.856H111.35V47H100.31V34.856H97.2859L91.7179 47H78.7099L87.7339 29.336L79.1899 13.4H90.9979L96.9979 25.928H100.31V13.4H111.35V25.928H114.47L120.566 13.4H132.374L123.878 29.336L132.854 47H119.846L114.278 34.856Z" fill="white"></path> <path d="M153.968 30.2V47H152.216V31.736H141.584V47H139.832V30.2H153.968ZM165.733 34.28C166.917 34.28 167.989 34.552 168.949 35.096C169.909 35.624 170.661 36.376 171.205 37.352C171.749 38.328 172.021 39.44 172.021 40.688C172.021 41.952 171.749 43.072 171.205 44.048C170.661 45.024 169.909 45.784 168.949 46.328C168.005 46.856 166.933 47.12 165.733 47.12C164.709 47.12 163.781 46.912 162.949 46.496C162.133 46.064 161.461 45.44 160.933 44.624V51.656H159.229V34.376H160.861V36.872C161.373 36.04 162.045 35.4 162.877 34.952C163.725 34.504 164.677 34.28 165.733 34.28ZM165.613 45.608C166.493 45.608 167.293 45.408 168.013 45.008C168.733 44.592 169.293 44.008 169.693 43.256C170.109 42.504 170.317 41.648 170.317 40.688C170.317 39.728 170.109 38.88 169.693 38.144C169.293 37.392 168.733 36.808 168.013 36.392C167.293 35.976 166.493 35.768 165.613 35.768C164.717 35.768 163.909 35.976 163.189 36.392C162.485 36.808 161.925 37.392 161.509 38.144C161.109 38.88 160.909 39.728 160.909 40.688C160.909 41.648 161.109 42.504 161.509 43.256C161.925 44.008 162.485 44.592 163.189 45.008C163.909 45.408 164.717 45.608 165.613 45.608ZM180.89 47.12C179.674 47.12 178.578 46.848 177.602 46.304C176.626 45.744 175.858 44.976 175.298 44C174.738 43.024 174.458 41.92 174.458 40.688C174.458 39.456 174.738 38.352 175.298 37.376C175.858 36.4 176.626 35.64 177.602 35.096C178.578 34.552 179.674 34.28 180.89 34.28C182.106 34.28 183.202 34.552 184.178 35.096C185.154 35.64 185.914 36.4 186.458 37.376C187.018 38.352 187.298 39.456 187.298 40.688C187.298 41.92 187.018 43.024 186.458 44C185.914 44.976 185.154 45.744 184.178 46.304C183.202 46.848 182.106 47.12 180.89 47.12ZM180.89 45.608C181.786 45.608 182.586 45.408 183.29 45.008C184.01 44.592 184.57 44.008 184.97 43.256C185.37 42.504 185.57 41.648 185.57 40.688C185.57 39.728 185.37 38.872 184.97 38.12C184.57 37.368 184.01 36.792 183.29 36.392C182.586 35.976 181.786 35.768 180.89 35.768C179.994 35.768 179.186 35.976 178.466 36.392C177.762 36.792 177.202 37.368 176.786 38.12C176.386 38.872 176.186 39.728 176.186 40.688C176.186 41.648 176.386 42.504 176.786 43.256C177.202 44.008 177.762 44.592 178.466 45.008C179.186 45.408 179.994 45.608 180.89 45.608ZM201.98 41.216H191.42C191.516 42.528 192.02 43.592 192.932 44.408C193.844 45.208 194.996 45.608 196.388 45.608C197.172 45.608 197.892 45.472 198.548 45.2C199.204 44.912 199.772 44.496 200.252 43.952L201.212 45.056C200.652 45.728 199.948 46.24 199.1 46.592C198.268 46.944 197.348 47.12 196.34 47.12C195.044 47.12 193.892 46.848 192.884 46.304C191.892 45.744 191.116 44.976 190.556 44C189.996 43.024 189.716 41.92 189.716 40.688C189.716 39.456 189.98 38.352 190.508 37.376C191.052 36.4 191.788 35.64 192.716 35.096C193.66 34.552 194.716 34.28 195.884 34.28C197.052 34.28 198.1 34.552 199.028 35.096C199.956 35.64 200.684 36.4 201.212 37.376C201.74 38.336 202.004 39.44 202.004 40.688L201.98 41.216ZM195.884 35.744C194.668 35.744 193.644 36.136 192.812 36.92C191.996 37.688 191.532 38.696 191.42 39.944H200.372C200.26 38.696 199.788 37.688 198.956 36.92C198.14 36.136 197.116 35.744 195.884 35.744ZM210.36 41.384H207.48V47H205.776V34.376H207.48V39.92H210.384L214.824 34.376H216.672L211.704 40.496L217.032 47H215.016L210.36 41.384ZM228.343 35.888H223.567V47H221.863V35.888H217.087V34.376H228.343V35.888ZM238.559 47.144C236.895 47.144 235.391 46.776 234.047 46.04C232.719 45.304 231.671 44.288 230.903 42.992C230.151 41.68 229.775 40.216 229.775 38.6C229.775 36.984 230.151 35.528 230.903 34.232C231.671 32.92 232.727 31.896 234.071 31.16C235.415 30.424 236.919 30.056 238.583 30.056C239.831 30.056 240.983 30.264 242.039 30.68C243.095 31.096 243.991 31.704 244.727 32.504L243.599 33.632C242.287 32.304 240.631 31.64 238.631 31.64C237.303 31.64 236.095 31.944 235.007 32.552C233.919 33.16 233.063 33.992 232.439 35.048C231.831 36.104 231.527 37.288 231.527 38.6C231.527 39.912 231.831 41.096 232.439 42.152C233.063 43.208 233.919 44.04 235.007 44.648C236.095 45.256 237.303 45.56 238.631 45.56C240.647 45.56 242.303 44.888 243.599 43.544L244.727 44.672C243.991 45.472 243.087 46.088 242.015 46.52C240.959 46.936 239.807 47.144 238.559 47.144ZM258.464 41.216H247.904C248 42.528 248.504 43.592 249.416 44.408C250.328 45.208 251.48 45.608 252.872 45.608C253.656 45.608 254.376 45.472 255.032 45.2C255.688 44.912 256.256 44.496 256.736 43.952L257.696 45.056C257.136 45.728 256.432 46.24 255.584 46.592C254.752 46.944 253.832 47.12 252.824 47.12C251.528 47.12 250.376 46.848 249.368 46.304C248.376 45.744 247.6 44.976 247.04 44C246.48 43.024 246.2 41.92 246.2 40.688C246.2 39.456 246.464 38.352 246.992 37.376C247.536 36.4 248.272 35.64 249.2 35.096C250.144 34.552 251.2 34.28 252.368 34.28C253.536 34.28 254.584 34.552 255.512 35.096C256.44 35.64 257.168 36.4 257.696 37.376C258.224 38.336 258.488 39.44 258.488 40.688L258.464 41.216ZM252.368 35.744C251.152 35.744 250.128 36.136 249.296 36.92C248.48 37.688 248.016 38.696 247.904 39.944H256.856C256.744 38.696 256.272 37.688 255.44 36.92C254.624 36.136 253.6 35.744 252.368 35.744ZM268.764 34.28C269.948 34.28 271.02 34.552 271.98 35.096C272.94 35.624 273.692 36.376 274.236 37.352C274.78 38.328 275.052 39.44 275.052 40.688C275.052 41.952 274.78 43.072 274.236 44.048C273.692 45.024 272.94 45.784 271.98 46.328C271.036 46.856 269.964 47.12 268.764 47.12C267.74 47.12 266.812 46.912 265.98 46.496C265.164 46.064 264.492 45.44 263.964 44.624V51.656H262.26V34.376H263.892V36.872C264.404 36.04 265.076 35.4 265.908 34.952C266.756 34.504 267.708 34.28 268.764 34.28ZM268.644 45.608C269.524 45.608 270.324 45.408 271.044 45.008C271.764 44.592 272.324 44.008 272.724 43.256C273.14 42.504 273.348 41.648 273.348 40.688C273.348 39.728 273.14 38.88 272.724 38.144C272.324 37.392 271.764 36.808 271.044 36.392C270.324 35.976 269.524 35.768 268.644 35.768C267.748 35.768 266.94 35.976 266.22 36.392C265.516 36.808 264.956 37.392 264.54 38.144C264.14 38.88 263.94 39.728 263.94 40.688C263.94 41.648 264.14 42.504 264.54 43.256C264.956 44.008 265.516 44.592 266.22 45.008C266.94 45.408 267.748 45.608 268.644 45.608ZM286.753 40.472C288.465 40.872 289.321 41.904 289.321 43.568C289.321 44.672 288.913 45.52 288.097 46.112C287.281 46.704 286.065 47 284.449 47H278.713V34.376H284.281C285.721 34.376 286.849 34.656 287.665 35.216C288.481 35.776 288.889 36.576 288.889 37.616C288.889 38.304 288.697 38.896 288.313 39.392C287.945 39.872 287.425 40.232 286.753 40.472ZM280.369 39.992H284.161C285.137 39.992 285.881 39.808 286.393 39.44C286.921 39.072 287.185 38.536 287.185 37.832C287.185 37.128 286.921 36.6 286.393 36.248C285.881 35.896 285.137 35.72 284.161 35.72H280.369V39.992ZM284.377 45.656C285.465 45.656 286.281 45.48 286.825 45.128C287.369 44.776 287.641 44.224 287.641 43.472C287.641 42.72 287.393 42.168 286.897 41.816C286.401 41.448 285.617 41.264 284.545 41.264H280.369V45.656H284.377ZM293.315 34.376H295.019V44.408L303.443 34.376H304.955V47H303.251V36.968L294.851 47H293.315V34.376ZM315.118 47.12C313.87 47.12 312.75 46.848 311.758 46.304C310.782 45.76 310.014 45 309.454 44.024C308.894 43.032 308.614 41.92 308.614 40.688C308.614 39.456 308.894 38.352 309.454 37.376C310.014 36.4 310.782 35.64 311.758 35.096C312.75 34.552 313.87 34.28 315.118 34.28C316.206 34.28 317.174 34.496 318.022 34.928C318.886 35.344 319.566 35.96 320.062 36.776L318.79 37.64C318.374 37.016 317.846 36.552 317.206 36.248C316.566 35.928 315.87 35.768 315.118 35.768C314.206 35.768 313.382 35.976 312.646 36.392C311.926 36.792 311.358 37.368 310.942 38.12C310.542 38.872 310.342 39.728 310.342 40.688C310.342 41.664 310.542 42.528 310.942 43.28C311.358 44.016 311.926 44.592 312.646 45.008C313.382 45.408 314.206 45.608 315.118 45.608C315.87 45.608 316.566 45.456 317.206 45.152C317.846 44.848 318.374 44.384 318.79 43.76L320.062 44.624C319.566 45.44 318.886 46.064 318.022 46.496C317.158 46.912 316.19 47.12 315.118 47.12Z" fill="white"></path> </svg> 